<svg width="1080" height="876" viewBox="0 0 1080 876" fill="none" xmlns="http://www.w3.org/2000/svg">
<g filter="url(#filter0_dd_981_64064)">
<rect x="-661" y="125" width="906.822" height="217.529" rx="108.765" fill="#424242"/>
<path d="M-421.245 187.184H-387.49C-378.62 187.184 -371.366 190.025 -365.729 195.705C-360.049 201.342 -357.209 208.617 -357.209 217.531C-357.209 226.489 -360.049 233.808 -365.729 239.489C-371.41 245.169 -378.707 248.009 -387.621 248.009H-409.447V281.765H-421.245V187.184ZM-409.447 197.671V237.522H-390.571C-383.841 237.522 -378.62 235.774 -374.906 232.279C-371.191 228.739 -369.334 223.823 -369.334 217.531C-369.334 211.239 -371.191 206.367 -374.906 202.915C-378.576 199.419 -383.798 197.671 -390.571 197.671H-409.447ZM-345.411 281.765V213.599H-334.662V224.741H-334.399C-333.263 220.94 -331.231 217.946 -328.304 215.762C-325.332 213.533 -321.859 212.419 -317.882 212.419C-316.965 212.419 -315.435 212.572 -313.294 212.878V223.955C-314.518 223.518 -316.55 223.299 -319.39 223.299C-323.803 223.299 -327.342 224.763 -330.008 227.691C-332.673 230.618 -334.006 234.485 -334.006 239.292V281.765H-345.411ZM-279.015 282.944C-288.54 282.944 -296.187 279.776 -301.955 273.44C-307.723 267.061 -310.607 258.475 -310.607 247.682C-310.607 236.889 -307.723 228.324 -301.955 221.988C-296.187 215.609 -288.54 212.419 -279.015 212.419C-269.533 212.419 -261.908 215.609 -256.14 221.988C-250.372 228.324 -247.488 236.889 -247.488 247.682C-247.488 258.431 -250.372 266.995 -256.14 273.375C-261.908 279.755 -269.533 282.944 -279.015 282.944ZM-293.631 266.231C-290.004 270.688 -285.132 272.916 -279.015 272.916C-272.897 272.916 -268.047 270.709 -264.464 266.296C-260.881 261.839 -259.089 255.634 -259.089 247.682C-259.089 239.729 -260.881 233.546 -264.464 229.133C-268.047 224.676 -272.897 222.447 -279.015 222.447C-285.132 222.447 -290.004 224.676 -293.631 229.133C-297.214 233.59 -299.006 239.773 -299.006 247.682C-299.006 255.591 -297.214 261.774 -293.631 266.231ZM-210.128 282.944C-218.867 282.944 -225.924 279.733 -231.298 273.309C-236.629 266.886 -239.295 258.343 -239.295 247.682C-239.295 237.063 -236.629 228.543 -231.298 222.119C-225.967 215.652 -218.998 212.419 -210.39 212.419C-205.583 212.419 -201.279 213.511 -197.478 215.696C-193.676 217.881 -190.748 220.874 -188.695 224.676H-188.433V187.184H-177.028V281.765H-187.908V270.229H-188.105C-190.333 274.205 -193.348 277.329 -197.15 279.602C-200.951 281.83 -205.277 282.944 -210.128 282.944ZM-207.965 222.447C-213.995 222.447 -218.779 224.741 -222.319 229.329C-225.858 233.874 -227.628 239.991 -227.628 247.682C-227.628 255.416 -225.858 261.555 -222.319 266.099C-218.779 270.644 -213.995 272.916 -207.965 272.916C-202.066 272.916 -197.325 270.622 -193.742 266.034C-190.159 261.402 -188.367 255.285 -188.367 247.682C-188.367 240.078 -190.18 233.983 -193.807 229.395C-197.39 224.763 -202.109 222.447 -207.965 222.447ZM-105.65 213.599V281.765H-116.465V270.688H-116.727C-120.966 278.859 -128.176 282.944 -138.357 282.944C-145.741 282.944 -151.531 280.716 -155.726 276.259C-159.877 271.758 -161.953 265.619 -161.953 257.841V213.599H-150.548V255.809C-150.548 267.17 -145.304 272.851 -134.817 272.851C-129.312 272.851 -124.986 271.125 -121.84 267.673C-118.65 264.177 -117.055 259.501 -117.055 253.646V213.599H-105.65ZM-34.2072 235.949H-45.3497C-46.2236 232.017 -48.1681 228.783 -51.1831 226.249C-54.1544 223.714 -58.0215 222.447 -62.7844 222.447C-68.7271 222.447 -73.5118 224.741 -77.1386 229.329C-80.7654 233.874 -82.5788 239.991 -82.5788 247.682C-82.5788 255.503 -80.7654 261.664 -77.1386 266.165C-73.4681 270.666 -68.6397 272.916 -62.6533 272.916C-58.0652 272.916 -54.2855 271.78 -51.3142 269.508C-48.2992 267.192 -46.2891 263.958 -45.2841 259.807H-34.0761C-34.95 266.624 -38.0306 272.195 -43.3178 276.521C-48.5613 280.803 -55.0284 282.944 -62.7189 282.944C-72.2446 282.944 -79.8696 279.798 -85.5938 273.506C-91.318 267.17 -94.1801 258.562 -94.1801 247.682C-94.1801 236.976 -91.318 228.433 -85.5938 222.054C-79.8696 215.63 -72.2883 212.419 -62.85 212.419C-54.7225 212.419 -48.1244 214.713 -43.0556 219.301C-37.9432 223.889 -34.9937 229.438 -34.2072 235.949ZM-19.9185 197.147H-8.51384V213.599H4.72608V222.971H-8.51384V263.478C-8.51384 266.58 -7.83655 268.874 -6.48197 270.36C-5.12739 271.802 -2.98628 272.523 -0.0586442 272.523C1.77659 272.523 3.34965 272.414 4.66053 272.195V281.765C3.17487 282.114 0.771582 282.289 -2.54932 282.289C-8.79786 282.289 -13.2549 280.891 -15.9203 278.094C-18.5858 275.298 -19.9185 270.622 -19.9185 264.068V222.971H-30.0779V213.599H-19.9185V197.147ZM17.5072 281.765V213.599H28.9119V281.765H17.5072ZM23.2095 202.128C21.2869 202.128 19.6265 201.429 18.2282 200.031C16.8299 198.633 16.1308 196.972 16.1308 195.05C16.1308 193.083 16.8299 191.423 18.2282 190.068C19.6265 188.67 21.2869 187.971 23.2095 187.971C25.1759 187.971 26.8582 188.67 28.2564 190.068C29.6547 191.423 30.3538 193.083 30.3538 195.05C30.3538 196.972 29.6547 198.633 28.2564 200.031C26.8582 201.429 25.1759 202.128 23.2095 202.128ZM100.224 213.599L75.186 281.765H63.5192L38.4157 213.599H50.4103L69.2215 269.639H69.4837L88.3604 213.599H100.224ZM134.569 222.316C129.282 222.316 124.89 224.151 121.395 227.822C117.943 231.448 116.042 236.124 115.692 241.848H152.725C152.594 236.08 150.868 231.383 147.547 227.756C144.226 224.129 139.9 222.316 134.569 222.316ZM152.463 262.232H163.671C162.666 268.262 159.52 273.222 154.232 277.111C148.989 281 142.675 282.944 135.29 282.944C125.546 282.944 117.877 279.798 112.284 273.506C106.691 267.214 103.894 258.693 103.894 247.944C103.894 237.282 106.691 228.696 112.284 222.185C117.921 215.674 125.415 212.419 134.766 212.419C143.942 212.419 151.195 215.499 156.526 221.661C161.857 227.822 164.523 236.08 164.523 246.436V250.762H115.627V251.418C115.627 257.972 117.418 263.216 121.001 267.148C124.585 271.081 129.435 273.047 135.552 273.047C139.834 273.047 143.483 272.064 146.498 270.098C149.513 268.131 151.501 265.51 152.463 262.232Z" fill="#ABA3FE"/>
</g>
<g filter="url(#filter1_dd_981_64064)">
<rect x="269.822" y="125" width="652.822" height="217.529" rx="108.765" fill="#424242"/>
<path d="M399.262 195.412L410.915 226.905L442.409 238.558L410.915 250.212L399.262 281.705L387.608 250.212L356.115 238.558L387.608 226.905L399.262 195.412Z" fill="#FFC0EA" stroke="#FFC0EA" stroke-width="7.67054" stroke-linecap="round" stroke-linejoin="round"/>
<path d="M440.007 185.824L443.244 194.572L451.992 197.809L443.244 201.046L440.007 209.794L436.77 201.046L428.021 197.809L436.77 194.572L440.007 185.824Z" fill="#FFC0EA" stroke="#FFC0EA" stroke-width="7.67054" stroke-linecap="round" stroke-linejoin="round"/>
<path d="M521.399 281.765H509.601V187.184H567.018V197.802H521.399V230.312H563.282V240.799H521.399V281.765ZM596.644 273.244C602.019 273.244 606.519 271.583 610.146 268.262C613.817 264.898 615.652 260.769 615.652 255.875V250.303L597.431 251.418C592.843 251.723 589.281 252.838 586.747 254.76C584.256 256.683 583.011 259.261 583.011 262.495C583.011 265.728 584.256 268.328 586.747 270.294C589.238 272.261 592.537 273.244 596.644 273.244ZM594.088 282.944C587.315 282.944 581.831 281.065 577.636 277.308C573.485 273.55 571.41 268.612 571.41 262.495C571.41 256.639 573.551 251.964 577.833 248.468C582.159 244.972 588.254 243.006 596.12 242.569L615.652 241.455V235.753C615.652 231.601 614.341 228.346 611.719 225.986C609.097 223.627 605.427 222.447 600.708 222.447C596.382 222.447 592.864 223.408 590.155 225.331C587.446 227.21 585.72 229.854 584.977 233.262H573.966C574.359 227.188 576.981 222.207 581.831 218.318C586.725 214.385 593.105 212.419 600.97 212.419C608.966 212.419 615.302 214.429 619.978 218.449C624.697 222.469 627.057 227.865 627.057 234.638V281.765H616.242V270.032H615.98C613.926 273.921 610.911 277.045 606.935 279.405C602.958 281.765 598.676 282.944 594.088 282.944ZM640.362 232.41C640.362 226.555 642.722 221.77 647.441 218.056C652.204 214.298 658.321 212.419 665.793 212.419C672.828 212.419 678.684 214.298 683.359 218.056C688.035 221.813 690.503 226.576 690.766 232.344H679.885C679.492 229.023 678.006 226.423 675.428 224.544C672.894 222.666 669.551 221.726 665.4 221.726C661.249 221.726 657.906 222.666 655.372 224.544C652.837 226.38 651.57 228.805 651.57 231.82C651.57 236.452 655.35 239.729 662.909 241.652L673.462 244.208C680.322 245.956 685.151 248.228 687.947 251.024C690.787 253.777 692.207 257.666 692.207 262.691C692.207 268.634 689.673 273.506 684.604 277.308C679.536 281.065 673.025 282.944 665.072 282.944C657.644 282.944 651.505 281.109 646.654 277.439C641.848 273.724 639.139 268.83 638.527 262.757H649.932C651.199 270.01 656.486 273.637 665.793 273.637C670.381 273.637 674.008 272.741 676.674 270.95C679.383 269.115 680.737 266.646 680.737 263.543C680.737 261.096 679.929 259.152 678.312 257.71C676.739 256.268 674.052 255.044 670.25 254.039L658.256 250.959C646.327 247.9 640.362 241.717 640.362 232.41ZM707.741 197.147H719.146V213.599H732.386V222.971H719.146V263.478C719.146 266.58 719.823 268.874 721.178 270.36C722.533 271.802 724.674 272.523 727.601 272.523C729.437 272.523 731.01 272.414 732.321 272.195V281.765C730.835 282.114 728.432 282.289 725.111 282.289C718.862 282.289 714.405 280.891 711.74 278.094C709.074 275.298 707.741 270.622 707.741 264.068V222.971H697.582V213.599H707.741V197.147ZM769.943 222.316C764.656 222.316 760.264 224.151 756.768 227.822C753.316 231.448 751.416 236.124 751.066 241.848H788.099C787.967 236.08 786.241 231.383 782.921 227.756C779.6 224.129 775.274 222.316 769.943 222.316ZM787.836 262.232H799.044C798.039 268.262 794.893 273.222 789.606 277.111C784.363 281 778.048 282.944 770.664 282.944C760.92 282.944 753.251 279.798 747.658 273.506C742.065 267.214 739.268 258.693 739.268 247.944C739.268 237.282 742.065 228.696 747.658 222.185C753.295 215.674 760.789 212.419 770.139 212.419C779.316 212.419 786.569 215.499 791.9 221.661C797.231 227.822 799.897 236.08 799.897 246.436V250.762H751.001V251.418C751.001 257.972 752.792 263.216 756.375 267.148C759.958 271.081 764.809 273.047 770.926 273.047C775.208 273.047 778.857 272.064 781.872 270.098C784.887 268.131 786.875 265.51 787.836 262.232ZM811.432 281.765V213.599H822.182V224.741H822.444C823.58 220.94 825.612 217.946 828.539 215.762C831.511 213.533 834.984 212.419 838.961 212.419C839.878 212.419 841.408 212.572 843.549 212.878V223.955C842.325 223.518 840.294 223.299 837.453 223.299C833.04 223.299 829.501 224.763 826.835 227.691C824.17 230.618 822.837 234.485 822.837 239.292V281.765H811.432Z" fill="#FFC0EA"/>
</g>
<g filter="url(#filter2_dd_981_64064)">
<rect x="946.643" y="125" width="794.822" height="217.529" rx="108.765" fill="#424242"/>
<path d="M1076.08 195.412L1087.74 226.905L1119.23 238.558L1087.74 250.212L1076.08 281.705L1064.43 250.212L1032.94 238.558L1064.43 226.905L1076.08 195.412Z" fill="#B9D2FE" stroke="#B9D2FE" stroke-width="7.67054" stroke-linecap="round" stroke-linejoin="round"/>
</g>
<g filter="url(#filter3_dd_981_64064)">
<rect x="-143.09" y="366.529" width="680.822" height="217.529" rx="108.765" fill="#424242"/>
<path d="M-13.6501 436.941L-1.99663 468.434L29.4967 480.088L-1.99663 491.741L-13.6501 523.234L-25.3037 491.741L-56.7969 480.088L-25.3037 468.434L-13.6501 436.941Z" fill="#FFDD7D" stroke="#FFDD7D" stroke-width="7.67054" stroke-linecap="round" stroke-linejoin="round"/>
<path d="M27.0946 427.353L30.3314 436.101L39.0798 439.338L30.3314 442.575L27.0946 451.323L23.8578 442.575L15.1094 439.338L23.8578 436.101L27.0946 427.353Z" fill="#FFDD7D" stroke="#FFDD7D" stroke-width="7.67054" stroke-linecap="round" stroke-linejoin="round"/>
<path d="M135.203 524.867C122.138 524.867 111.76 520.475 104.069 511.692C96.4226 502.866 92.5992 490.958 92.5992 475.971C92.5992 461.114 96.4663 449.272 104.2 440.446C111.935 431.575 122.269 427.14 135.203 427.14C145.515 427.14 154.254 430.024 161.421 435.792C168.63 441.516 172.978 449.097 174.464 458.536H162.535C161.005 452.331 157.75 447.371 152.769 443.657C147.787 439.899 141.932 438.021 135.203 438.021C125.983 438.021 118.598 441.473 113.049 448.376C107.5 455.28 104.725 464.479 104.725 475.971C104.725 487.594 107.478 496.835 112.983 503.696C118.489 510.556 125.917 513.986 135.268 513.986C142.216 513.986 148.071 512.391 152.834 509.201C157.597 506.012 160.831 501.533 162.535 495.765H174.464C172.279 505.116 167.8 512.304 161.027 517.329C154.254 522.354 145.646 524.867 135.203 524.867ZM186.655 523.293V455.128H197.404V466.27H197.666C198.803 462.468 200.834 459.475 203.762 457.29C206.733 455.062 210.207 453.948 214.184 453.948C215.101 453.948 216.631 454.101 218.772 454.407V465.484C217.548 465.047 215.516 464.828 212.676 464.828C208.263 464.828 204.723 466.292 202.058 469.22C199.392 472.147 198.06 476.014 198.06 480.821V523.293H186.655ZM252.134 463.845C246.846 463.845 242.455 465.68 238.959 469.351C235.507 472.977 233.607 477.653 233.257 483.377H270.289C270.158 477.609 268.432 472.912 265.111 469.285C261.79 465.658 257.465 463.845 252.134 463.845ZM270.027 503.761H281.235C280.23 509.791 277.084 514.751 271.797 518.64C266.553 522.529 260.239 524.473 252.855 524.473C243.11 524.473 235.442 521.327 229.849 515.035C224.256 508.743 221.459 500.222 221.459 489.473C221.459 478.811 224.256 470.225 229.849 463.714C235.485 457.203 242.979 453.948 252.33 453.948C261.506 453.948 268.76 457.028 274.091 463.189C279.422 469.351 282.087 477.609 282.087 487.965V492.291H233.191V492.947C233.191 499.501 234.983 504.744 238.566 508.677C242.149 512.61 246.999 514.576 253.117 514.576C257.399 514.576 261.048 513.593 264.063 511.627C267.078 509.66 269.066 507.039 270.027 503.761ZM316.105 514.773C321.479 514.773 325.98 513.112 329.607 509.791C333.277 506.427 335.113 502.297 335.113 497.404V491.832L316.891 492.947C312.303 493.252 308.742 494.367 306.208 496.289C303.717 498.212 302.472 500.79 302.472 504.023C302.472 507.257 303.717 509.857 306.208 511.823C308.698 513.79 311.997 514.773 316.105 514.773ZM313.549 524.473C306.776 524.473 301.292 522.594 297.097 518.836C292.946 515.079 290.87 510.141 290.87 504.023C290.87 498.168 293.011 493.493 297.294 489.997C301.619 486.501 307.715 484.535 315.58 484.098L335.113 482.984V477.281C335.113 473.13 333.802 469.875 331.18 467.515C328.558 465.156 324.888 463.976 320.168 463.976C315.843 463.976 312.325 464.937 309.616 466.86C306.907 468.739 305.181 471.382 304.438 474.791H293.426C293.82 468.717 296.441 463.736 301.292 459.847C306.186 455.914 312.565 453.948 320.431 453.948C328.427 453.948 334.763 455.958 339.438 459.978C344.158 463.998 346.517 469.394 346.517 476.167V523.293H335.702V511.561H335.44C333.387 515.45 330.372 518.574 326.395 520.934C322.419 523.293 318.137 524.473 313.549 524.473ZM364.673 438.676H376.078V455.128H389.318V464.5H376.078V505.007C376.078 508.109 376.755 510.403 378.109 511.889C379.464 513.331 381.605 514.052 384.533 514.052C386.368 514.052 387.941 513.942 389.252 513.724V523.293C387.766 523.643 385.363 523.818 382.042 523.818C375.794 523.818 371.337 522.42 368.671 519.623C366.006 516.826 364.673 512.151 364.673 505.597V464.5H354.514V455.128H364.673V438.676ZM426.874 463.845C421.587 463.845 417.196 465.68 413.7 469.351C410.248 472.977 408.347 477.653 407.998 483.377H445.03C444.899 477.609 443.173 472.912 439.852 469.285C436.531 465.658 432.205 463.845 426.874 463.845ZM444.768 503.761H455.976C454.971 509.791 451.825 514.751 446.538 518.64C441.294 522.529 434.98 524.473 427.595 524.473C417.851 524.473 410.182 521.327 404.589 515.035C398.996 508.743 396.2 500.222 396.2 489.473C396.2 478.811 398.996 470.225 404.589 463.714C410.226 457.203 417.72 453.948 427.071 453.948C436.247 453.948 443.501 457.028 448.832 463.189C454.163 469.351 456.828 477.609 456.828 487.965V492.291H407.932V492.947C407.932 499.501 409.724 504.744 413.307 508.677C416.89 512.61 421.74 514.576 427.858 514.576C432.14 514.576 435.788 513.593 438.803 511.627C441.818 509.66 443.807 507.039 444.768 503.761Z" fill="#FFDD7D"/>
</g>
<g filter="url(#filter4_dd_981_64064)">
<rect x="561.732" y="366.529" width="661.822" height="217.529" rx="108.765" fill="#424242"/>
<path d="M691.172 436.941L702.826 468.434L734.319 480.088L702.826 491.741L691.172 523.234L679.519 491.741L648.025 480.088L679.519 468.434L691.172 436.941Z" fill="#FD8C73" stroke="#FD8C73" stroke-width="7.67054" stroke-linecap="round" stroke-linejoin="round"/>
<path d="M731.917 427.353L735.154 436.101L743.902 439.338L735.154 442.575L731.917 451.323L728.68 442.575L719.932 439.338L728.68 436.101L731.917 427.353Z" fill="#FD8C73" stroke="#FD8C73" stroke-width="7.67054" stroke-linecap="round" stroke-linejoin="round"/>
<path d="M862.642 523.293L853.138 496.224H815.516L806.012 523.293H793.624L828.493 428.713H840.16L875.03 523.293H862.642ZM834.13 443.067L818.989 486.195H849.664L834.523 443.067H834.13ZM882.895 473.939C882.895 468.083 885.255 463.299 889.974 459.585C894.737 455.827 900.854 453.948 908.326 453.948C915.361 453.948 921.216 455.827 925.892 459.585C930.567 463.342 933.036 468.105 933.298 473.873H922.418C922.025 470.552 920.539 467.952 917.961 466.073C915.427 464.194 912.084 463.255 907.933 463.255C903.782 463.255 900.439 464.194 897.905 466.073C895.37 467.909 894.103 470.334 894.103 473.349C894.103 477.981 897.883 481.258 905.442 483.18L915.995 485.737C922.855 487.485 927.683 489.757 930.48 492.553C933.32 495.306 934.74 499.195 934.74 504.22C934.74 510.163 932.206 515.035 927.137 518.836C922.068 522.594 915.558 524.473 907.605 524.473C900.177 524.473 894.037 522.638 889.187 518.968C884.381 515.253 881.671 510.359 881.06 504.286H892.464C893.732 511.539 899.019 515.166 908.326 515.166C912.914 515.166 916.541 514.27 919.206 512.479C921.916 510.643 923.27 508.175 923.27 505.072C923.27 502.625 922.462 500.681 920.845 499.239C919.272 497.797 916.585 496.573 912.783 495.568L900.788 492.488C888.859 489.429 882.895 483.246 882.895 473.939ZM958.598 485.409L988.749 455.128H1002.58L973.018 484.557L1003.5 523.293H990.256L964.956 491.57L958.598 497.6V523.293H947.194V428.713H958.598V485.409ZM1102.53 523.293L1093.03 496.224H1055.41L1045.9 523.293H1033.52L1068.38 428.713H1080.05L1114.92 523.293H1102.53ZM1074.02 443.067L1058.88 486.195H1089.56L1074.41 443.067H1074.02ZM1137.53 523.293H1125.74V428.713H1137.53V523.293Z" fill="#FD8C73"/>
</g>
<g filter="url(#filter5_dd_981_64064)">
<rect x="151.822" y="608.058" width="776.822" height="217.529" rx="108.765" fill="#424242"/>
<rect x="151.822" y="608.058" width="776.822" height="217.529" rx="108.765" stroke="#0083FF"/>
<path d="M281.262 678.47L292.915 709.963L324.409 721.617L292.915 733.27L281.262 764.764L269.608 733.27L238.115 721.617L269.608 709.963L281.262 678.47Z" fill="#0083FF" stroke="#0083FF" stroke-width="7.67054" stroke-linecap="round" stroke-linejoin="round"/>
<path d="M322.007 668.882L325.244 677.63L333.992 680.867L325.244 684.104L322.007 692.853L318.77 684.104L310.021 680.867L318.77 677.63L322.007 668.882Z" fill="#0083FF" stroke="#0083FF" stroke-width="7.67054" stroke-linecap="round" stroke-linejoin="round"/>
<path d="M386.615 738.801H398.479C399.047 743.914 401.538 748.021 405.951 751.124C410.408 754.226 416.023 755.777 422.796 755.777C429.175 755.777 434.441 754.27 438.592 751.255C442.787 748.196 444.884 744.351 444.884 739.719C444.884 735.743 443.42 732.466 440.493 729.887C437.609 727.309 432.977 725.19 426.597 723.53L414.472 720.384C405.732 718.155 399.353 715.053 395.333 711.076C391.313 707.056 389.303 701.835 389.303 695.411C389.303 687.546 392.405 681.123 398.61 676.141C404.858 671.16 412.899 668.669 422.73 668.669C432.125 668.669 439.903 671.204 446.064 676.272C452.225 681.297 455.437 687.764 455.699 695.673H443.901C443.377 690.605 441.192 686.606 437.347 683.679C433.501 680.751 428.498 679.287 422.337 679.287C416.219 679.287 411.216 680.729 407.327 683.613C403.482 686.497 401.559 690.255 401.559 694.887C401.559 698.47 402.958 701.419 405.754 703.735C408.594 706.008 413.226 707.974 419.65 709.634L429.547 712.256C439.335 714.703 446.37 717.958 450.652 722.022C454.934 726.086 457.075 731.504 457.075 738.277C457.075 746.929 453.885 753.789 447.506 758.858C441.17 763.883 432.562 766.396 421.681 766.396C411.631 766.396 403.417 763.883 397.037 758.858C390.657 753.833 387.183 747.147 386.615 738.801ZM525.045 696.657V764.823H514.23V753.746H513.968C509.729 761.917 502.519 766.002 492.338 766.002C484.953 766.002 479.164 763.774 474.969 759.317C470.818 754.816 468.742 748.677 468.742 740.899V696.657H480.147V738.867C480.147 750.228 485.39 755.909 495.877 755.909C501.383 755.909 505.709 754.183 508.855 750.731C512.045 747.235 513.64 742.559 513.64 736.704V696.657H525.045ZM567.583 755.319C573.525 755.319 578.31 753.046 581.937 748.502C585.564 743.958 587.377 737.949 587.377 730.477C587.377 722.962 585.564 716.932 581.937 712.387C578.31 707.799 573.525 705.505 567.583 705.505C561.684 705.505 556.965 707.777 553.425 712.322C549.93 716.822 548.182 722.874 548.182 730.477C548.182 738.08 549.93 744.132 553.425 748.633C556.965 753.09 561.684 755.319 567.583 755.319ZM567.976 790.516C560.504 790.516 554.081 788.615 548.706 784.813C543.331 781.056 540.163 776.271 539.202 770.459H550.935C552.071 773.605 554.212 776.118 557.358 777.997C560.504 779.876 564.196 780.815 568.435 780.815C574.29 780.815 578.9 779.264 582.265 776.162C585.673 773.059 587.377 768.952 587.377 763.839V753.09H587.115C584.974 756.848 581.981 759.841 578.135 762.07C574.29 764.254 570.008 765.347 565.289 765.347C556.593 765.347 549.624 762.179 544.38 755.843C539.137 749.507 536.515 741.052 536.515 730.477C536.515 719.816 539.137 711.317 544.38 704.981C549.667 698.645 556.724 695.477 565.551 695.477C570.357 695.477 574.683 696.591 578.529 698.82C582.374 701.048 585.433 704.15 587.705 708.127H587.901V696.657H598.782V763.446C598.782 771.617 595.985 778.172 590.392 783.109C584.799 788.047 577.327 790.516 567.976 790.516ZM641.385 755.319C647.328 755.319 652.113 753.046 655.74 748.502C659.366 743.958 661.18 737.949 661.18 730.477C661.18 722.962 659.366 716.932 655.74 712.387C652.113 707.799 647.328 705.505 641.385 705.505C635.486 705.505 630.767 707.777 627.228 712.322C623.732 716.822 621.984 722.874 621.984 730.477C621.984 738.08 623.732 744.132 627.228 748.633C630.767 753.09 635.486 755.319 641.385 755.319ZM641.779 790.516C634.307 790.516 627.883 788.615 622.509 784.813C617.134 781.056 613.966 776.271 613.005 770.459H624.737C625.873 773.605 628.014 776.118 631.161 777.997C634.307 779.876 637.999 780.815 642.238 780.815C648.093 780.815 652.703 779.264 656.067 776.162C659.476 773.059 661.18 768.952 661.18 763.839V753.09H660.918C658.777 756.848 655.783 759.841 651.938 762.07C648.093 764.254 643.811 765.347 639.091 765.347C630.396 765.347 623.426 762.179 618.183 755.843C612.939 749.507 610.318 741.052 610.318 730.477C610.318 719.816 612.939 711.317 618.183 704.981C623.47 698.645 630.527 695.477 639.354 695.477C644.16 695.477 648.486 696.591 652.331 698.82C656.177 701.048 659.235 704.15 661.508 708.127H661.704V696.657H672.584V763.446C672.584 771.617 669.788 778.172 664.195 783.109C658.602 788.047 651.13 790.516 641.779 790.516ZM714.795 705.374C709.508 705.374 705.116 707.209 701.621 710.88C698.169 714.506 696.268 719.182 695.918 724.906H732.951C732.82 719.138 731.094 714.441 727.773 710.814C724.452 707.187 720.126 705.374 714.795 705.374ZM732.688 745.29H743.897C742.892 751.32 739.745 756.28 734.458 760.169C729.215 764.058 722.901 766.002 715.516 766.002C705.772 766.002 698.103 762.856 692.51 756.564C686.917 750.272 684.12 741.751 684.12 731.002C684.12 720.34 686.917 711.754 692.51 705.243C698.147 698.732 705.641 695.477 714.992 695.477C724.168 695.477 731.421 698.557 736.752 704.719C742.083 710.88 744.749 719.138 744.749 729.494V733.82H695.853V734.476C695.853 741.03 697.644 746.274 701.227 750.206C704.81 754.139 709.661 756.105 715.778 756.105C720.06 756.105 723.709 755.122 726.724 753.156C729.739 751.189 731.727 748.568 732.688 745.29ZM755.105 715.468C755.105 709.612 757.464 704.828 762.183 701.114C766.946 697.356 773.064 695.477 780.536 695.477C787.571 695.477 793.426 697.356 798.102 701.114C802.777 704.871 805.246 709.634 805.508 715.402H794.628C794.234 712.081 792.749 709.481 790.171 707.602C787.636 705.724 784.294 704.784 780.142 704.784C775.991 704.784 772.649 705.724 770.114 707.602C767.58 709.438 766.313 711.863 766.313 714.878C766.313 719.51 770.092 722.787 777.652 724.709L788.204 727.266C795.065 729.014 799.893 731.286 802.69 734.082C805.53 736.835 806.95 740.724 806.95 745.749C806.95 751.692 804.416 756.564 799.347 760.366C794.278 764.123 787.767 766.002 779.815 766.002C772.386 766.002 766.247 764.167 761.397 760.497C756.59 756.782 753.881 751.888 753.269 745.815H764.674C765.941 753.068 771.228 756.695 780.536 756.695C785.124 756.695 788.751 755.799 791.416 754.008C794.125 752.172 795.48 749.704 795.48 746.601C795.48 744.154 794.671 742.21 793.055 740.768C791.482 739.326 788.794 738.102 784.993 737.097L772.998 734.017C761.069 730.958 755.105 724.775 755.105 715.468ZM822.484 680.205H833.889V696.657H847.129V706.029H833.889V746.536C833.889 749.638 834.566 751.932 835.92 753.418C837.275 754.86 839.416 755.581 842.344 755.581C844.179 755.581 845.752 755.472 847.063 755.253V764.823C845.577 765.172 843.174 765.347 839.853 765.347C833.605 765.347 829.148 763.949 826.482 761.152C823.817 758.355 822.484 753.68 822.484 747.126V706.029H812.325V696.657H822.484V680.205Z" fill="#0083FF"/>
</g>
<defs>
<filter id="filter0_dd_981_64064" x="-814.411" y="0.353752" width="1213.64" height="524.351" filterUnits="userSpaceOnUse" color-interpolation-filters="sRGB">
<feFlood flood-opacity="0" result="BackgroundImageFix"/>
<feColorMatrix in="SourceAlpha" type="matrix" values="0 0 0 0 0 0 0 0 0 0 0 0 0 0 0 0 0 0 127 0" result="hardAlpha"/>
<feOffset dy="28.7645"/>
<feGaussianBlur stdDeviation="76.7054"/>
<feColorMatrix type="matrix" values="0 0 0 0 0 0 0 0 0 0 0 0 0 0 0 0 0 0 0.08 0"/>
<feBlend mode="normal" in2="BackgroundImageFix" result="effect1_dropShadow_981_64064"/>
<feColorMatrix in="SourceAlpha" type="matrix" values="0 0 0 0 0 0 0 0 0 0 0 0 0 0 0 0 0 0 127 0" result="hardAlpha"/>
<feOffset dy="19.1763"/>
<feGaussianBlur stdDeviation="9.58817"/>
<feColorMatrix type="matrix" values="0 0 0 0 0 0 0 0 0 0 0 0 0 0 0 0 0 0 0.03 0"/>
<feBlend mode="normal" in2="effect1_dropShadow_981_64064" result="effect2_dropShadow_981_64064"/>
<feBlend mode="normal" in="SourceGraphic" in2="effect2_dropShadow_981_64064" result="shape"/>
</filter>
<filter id="filter1_dd_981_64064" x="116.411" y="0.353752" width="959.644" height="524.351" filterUnits="userSpaceOnUse" color-interpolation-filters="sRGB">
<feFlood flood-opacity="0" result="BackgroundImageFix"/>
<feColorMatrix in="SourceAlpha" type="matrix" values="0 0 0 0 0 0 0 0 0 0 0 0 0 0 0 0 0 0 127 0" result="hardAlpha"/>
<feOffset dy="28.7645"/>
<feGaussianBlur stdDeviation="76.7054"/>
<feColorMatrix type="matrix" values="0 0 0 0 0 0 0 0 0 0 0 0 0 0 0 0 0 0 0.08 0"/>
<feBlend mode="normal" in2="BackgroundImageFix" result="effect1_dropShadow_981_64064"/>
<feColorMatrix in="SourceAlpha" type="matrix" values="0 0 0 0 0 0 0 0 0 0 0 0 0 0 0 0 0 0 127 0" result="hardAlpha"/>
<feOffset dy="19.1763"/>
<feGaussianBlur stdDeviation="9.58817"/>
<feColorMatrix type="matrix" values="0 0 0 0 0 0 0 0 0 0 0 0 0 0 0 0 0 0 0.03 0"/>
<feBlend mode="normal" in2="effect1_dropShadow_981_64064" result="effect2_dropShadow_981_64064"/>
<feBlend mode="normal" in="SourceGraphic" in2="effect2_dropShadow_981_64064" result="shape"/>
</filter>
<filter id="filter2_dd_981_64064" x="793.232" y="0.353752" width="1101.64" height="524.351" filterUnits="userSpaceOnUse" color-interpolation-filters="sRGB">
<feFlood flood-opacity="0" result="BackgroundImageFix"/>
<feColorMatrix in="SourceAlpha" type="matrix" values="0 0 0 0 0 0 0 0 0 0 0 0 0 0 0 0 0 0 127 0" result="hardAlpha"/>
<feOffset dy="28.7645"/>
<feGaussianBlur stdDeviation="76.7054"/>
<feColorMatrix type="matrix" values="0 0 0 0 0 0 0 0 0 0 0 0 0 0 0 0 0 0 0.08 0"/>
<feBlend mode="normal" in2="BackgroundImageFix" result="effect1_dropShadow_981_64064"/>
<feColorMatrix in="SourceAlpha" type="matrix" values="0 0 0 0 0 0 0 0 0 0 0 0 0 0 0 0 0 0 127 0" result="hardAlpha"/>
<feOffset dy="19.1763"/>
<feGaussianBlur stdDeviation="9.58817"/>
<feColorMatrix type="matrix" values="0 0 0 0 0 0 0 0 0 0 0 0 0 0 0 0 0 0 0.03 0"/>
<feBlend mode="normal" in2="effect1_dropShadow_981_64064" result="effect2_dropShadow_981_64064"/>
<feBlend mode="normal" in="SourceGraphic" in2="effect2_dropShadow_981_64064" result="shape"/>
</filter>
<filter id="filter3_dd_981_64064" x="-296.501" y="241.883" width="987.644" height="524.351" filterUnits="userSpaceOnUse" color-interpolation-filters="sRGB">
<feFlood flood-opacity="0" result="BackgroundImageFix"/>
<feColorMatrix in="SourceAlpha" type="matrix" values="0 0 0 0 0 0 0 0 0 0 0 0 0 0 0 0 0 0 127 0" result="hardAlpha"/>
<feOffset dy="28.7645"/>
<feGaussianBlur stdDeviation="76.7054"/>
<feColorMatrix type="matrix" values="0 0 0 0 0 0 0 0 0 0 0 0 0 0 0 0 0 0 0.08 0"/>
<feBlend mode="normal" in2="BackgroundImageFix" result="effect1_dropShadow_981_64064"/>
<feColorMatrix in="SourceAlpha" type="matrix" values="0 0 0 0 0 0 0 0 0 0 0 0 0 0 0 0 0 0 127 0" result="hardAlpha"/>
<feOffset dy="19.1763"/>
<feGaussianBlur stdDeviation="9.58817"/>
<feColorMatrix type="matrix" values="0 0 0 0 0 0 0 0 0 0 0 0 0 0 0 0 0 0 0.03 0"/>
<feBlend mode="normal" in2="effect1_dropShadow_981_64064" result="effect2_dropShadow_981_64064"/>
<feBlend mode="normal" in="SourceGraphic" in2="effect2_dropShadow_981_64064" result="shape"/>
</filter>
<filter id="filter4_dd_981_64064" x="408.322" y="241.883" width="968.644" height="524.351" filterUnits="userSpaceOnUse" color-interpolation-filters="sRGB">
<feFlood flood-opacity="0" result="BackgroundImageFix"/>
<feColorMatrix in="SourceAlpha" type="matrix" values="0 0 0 0 0 0 0 0 0 0 0 0 0 0 0 0 0 0 127 0" result="hardAlpha"/>
<feOffset dy="28.7645"/>
<feGaussianBlur stdDeviation="76.7054"/>
<feColorMatrix type="matrix" values="0 0 0 0 0 0 0 0 0 0 0 0 0 0 0 0 0 0 0.08 0"/>
<feBlend mode="normal" in2="BackgroundImageFix" result="effect1_dropShadow_981_64064"/>
<feColorMatrix in="SourceAlpha" type="matrix" values="0 0 0 0 0 0 0 0 0 0 0 0 0 0 0 0 0 0 127 0" result="hardAlpha"/>
<feOffset dy="19.1763"/>
<feGaussianBlur stdDeviation="9.58817"/>
<feColorMatrix type="matrix" values="0 0 0 0 0 0 0 0 0 0 0 0 0 0 0 0 0 0 0.03 0"/>
<feBlend mode="normal" in2="effect1_dropShadow_981_64064" result="effect2_dropShadow_981_64064"/>
<feBlend mode="normal" in="SourceGraphic" in2="effect2_dropShadow_981_64064" result="shape"/>
</filter>
<filter id="filter5_dd_981_64064" x="-1.5885" y="483.412" width="1083.64" height="524.351" filterUnits="userSpaceOnUse" color-interpolation-filters="sRGB">
<feFlood flood-opacity="0" result="BackgroundImageFix"/>
<feColorMatrix in="SourceAlpha" type="matrix" values="0 0 0 0 0 0 0 0 0 0 0 0 0 0 0 0 0 0 127 0" result="hardAlpha"/>
<feOffset dy="28.7645"/>
<feGaussianBlur stdDeviation="76.7054"/>
<feColorMatrix type="matrix" values="0 0 0 0 0 0 0 0 0 0 0 0 0 0 0 0 0 0 0.08 0"/>
<feBlend mode="normal" in2="BackgroundImageFix" result="effect1_dropShadow_981_64064"/>
<feColorMatrix in="SourceAlpha" type="matrix" values="0 0 0 0 0 0 0 0 0 0 0 0 0 0 0 0 0 0 127 0" result="hardAlpha"/>
<feOffset dy="19.1763"/>
<feGaussianBlur stdDeviation="9.58817"/>
<feColorMatrix type="matrix" values="0 0 0 0 0 0 0 0 0 0 0 0 0 0 0 0 0 0 0.03 0"/>
<feBlend mode="normal" in2="effect1_dropShadow_981_64064" result="effect2_dropShadow_981_64064"/>
<feBlend mode="normal" in="SourceGraphic" in2="effect2_dropShadow_981_64064" result="shape"/>
</filter>
</defs>
</svg>
