<svg width="138" height="11" viewBox="0 0 138 11" fill="none" xmlns="http://www.w3.org/2000/svg">
<path d="M13.6647 6.50382C53.0592 5.8257 92.4539 5.14759 131.848 4.46948C132.546 4.45747 138.914 4.18037 135.034 5.15862C125.521 7.5575 113.837 7.07136 104.053 7.37273C86.7708 7.90509 69.4637 8.02324 52.1751 8.32084C41.0281 8.51272 29.6795 9.12167 18.5964 7.87932C13.7377 7.33469 8.9164 6.39112 4.34446 4.90075C-0.807825 3.22119 3.7297 3.69893 6.80961 3.64591C46.8979 2.95586 87.3489 0.875626 127.396 2.45196C130.133 2.55967 133.012 2.62732 135.748 2.88686C137.881 3.08928 131.452 2.98835 129.304 3.02533C108.98 3.37517 88.6556 3.72502 68.3314 4.07487C52.272 4.35131 35.9492 5.28129 19.9091 4.30218C15.8134 4.05217 11.8412 3.5593 7.72551 3.63015" stroke="#0083FF" stroke-width="3" stroke-linecap="round"/>
</svg>
